<svg id="visual" viewBox="0 0 900 600" width="900" height="600" xmlns="http://www.w3.org/2000/svg" xmlns:xlink="http://www.w3.org/1999/xlink" version="1.1"><rect width="900" height="600" fill="#001829"></rect><g><g transform="translate(159 68)"><path d="M0 -42.9L33.6 -26.8L41.9 9.6L18.6 38.7L-18.6 38.7L-41.9 9.6L-33.6 -26.8Z" fill="none" stroke="#297EA6" stroke-width="2"></path></g><g transform="translate(780 156)"><path d="M0 -21L16.4 -13.1L20.5 4.7L9.1 18.9L-9.1 18.9L-20.5 4.7L-16.4 -13.1Z" fill="none" stroke="#297EA6" stroke-width="2"></path></g><g transform="translate(799 403)"><path d="M0 -31L24.2 -19.3L30.2 6.9L13.5 27.9L-13.5 27.9L-30.2 6.9L-24.2 -19.3Z" fill="none" stroke="#297EA6" stroke-width="2"></path></g><g transform="translate(478 123)"><path d="M0 -37L28.9 -23.1L36.1 8.2L16.1 33.3L-16.1 33.3L-36.1 8.2L-28.9 -23.1Z" fill="none" stroke="#297EA6" stroke-width="2"></path></g><g transform="translate(393 246)"><path d="M0 -17L13.3 -10.6L16.6 3.8L7.4 15.3L-7.4 15.3L-16.6 3.8L-13.3 -10.6Z" fill="none" stroke="#297EA6" stroke-width="2"></path></g><g transform="translate(762 512)"><path d="M0 -30L23.5 -18.7L29.2 6.7L13 27L-13 27L-29.2 6.7L-23.5 -18.7Z" fill="none" stroke="#297EA6" stroke-width="2"></path></g><g transform="translate(80 371)"><path d="M0 -24L18.8 -15L23.4 5.3L10.4 21.6L-10.4 21.6L-23.4 5.3L-18.8 -15Z" fill="none" stroke="#297EA6" stroke-width="2"></path></g><g transform="translate(856 69)"><path d="M0 -32L25 -20L31.2 7.1L13.9 28.8L-13.9 28.8L-31.2 7.1L-25 -20Z" fill="none" stroke="#297EA6" stroke-width="2"></path></g><g transform="translate(272 98)"><path d="M0 -32L25 -20L31.2 7.1L13.9 28.8L-13.9 28.8L-31.2 7.1L-25 -20Z" fill="none" stroke="#297EA6" stroke-width="2"></path></g><g transform="translate(690 104)"><path d="M0 -19L14.9 -11.8L18.5 4.2L8.2 17.1L-8.2 17.1L-18.5 4.2L-14.9 -11.8Z" fill="none" stroke="#297EA6" stroke-width="2"></path></g><g transform="translate(557 185)"><path d="M0 -28L21.9 -17.5L27.3 6.2L12.1 25.2L-12.1 25.2L-27.3 6.2L-21.9 -17.5Z" fill="none" stroke="#297EA6" stroke-width="2"></path></g><g transform="translate(491 5)"><path d="M0 -15L11.7 -9.4L14.6 3.3L6.5 13.5L-6.5 13.5L-14.6 3.3L-11.7 -9.4Z" fill="none" stroke="#297EA6" stroke-width="2"></path></g><g transform="translate(693 599)"><path d="M0 -40L31.3 -24.9L39 8.9L17.4 36L-17.4 36L-39 8.9L-31.3 -24.9Z" fill="none" stroke="#297EA6" stroke-width="2"></path></g><g transform="translate(97 227)"><path d="M0 -30L23.5 -18.7L29.2 6.7L13 27L-13 27L-29.2 6.7L-23.5 -18.7Z" fill="none" stroke="#297EA6" stroke-width="2"></path></g><g transform="translate(636 480)"><path d="M0 -27L21.1 -16.8L26.3 6L11.7 24.3L-11.7 24.3L-26.3 6L-21.1 -16.8Z" fill="none" stroke="#297EA6" stroke-width="2"></path></g><g transform="translate(133 546)"><path d="M0 -24L18.8 -15L23.4 5.3L10.4 21.6L-10.4 21.6L-23.4 5.3L-18.8 -15Z" fill="none" stroke="#297EA6" stroke-width="2"></path></g><g transform="translate(281 467)"><path d="M0 -32L25 -20L31.2 7.1L13.9 28.8L-13.9 28.8L-31.2 7.1L-25 -20Z" fill="none" stroke="#297EA6" stroke-width="2"></path></g><g transform="translate(265 199)"><path d="M0 -14L10.9 -8.7L13.6 3.1L6.1 12.6L-6.1 12.6L-13.6 3.1L-10.9 -8.7Z" fill="none" stroke="#297EA6" stroke-width="2"></path></g><g transform="translate(490 454)"><path d="M0 -40L31.3 -24.9L39 8.9L17.4 36L-17.4 36L-39 8.9L-31.3 -24.9Z" fill="none" stroke="#297EA6" stroke-width="2"></path></g><g transform="translate(47 534)"><path d="M0 -28L21.9 -17.5L27.3 6.2L12.1 25.2L-12.1 25.2L-27.3 6.2L-21.9 -17.5Z" fill="none" stroke="#297EA6" stroke-width="2"></path></g><g transform="translate(429 527)"><path d="M0 -40L31.3 -24.9L39 8.9L17.4 36L-17.4 36L-39 8.9L-31.3 -24.9Z" fill="none" stroke="#297EA6" stroke-width="2"></path></g><g transform="translate(184 444)"><path d="M0 -16L12.5 -10L15.6 3.6L6.9 14.4L-6.9 14.4L-15.6 3.6L-12.5 -10Z" fill="none" stroke="#297EA6" stroke-width="2"></path></g><g transform="translate(409 361)"><path d="M0 -19L14.9 -11.8L18.5 4.2L8.2 17.1L-8.2 17.1L-18.5 4.2L-14.9 -11.8Z" fill="none" stroke="#297EA6" stroke-width="2"></path></g><g transform="translate(581 576)"><path d="M0 -32L25 -20L31.2 7.1L13.9 28.8L-13.9 28.8L-31.2 7.1L-25 -20Z" fill="none" stroke="#297EA6" stroke-width="2"></path></g><g transform="translate(71 11)"><path d="M0 -14L10.9 -8.7L13.6 3.1L6.1 12.6L-6.1 12.6L-13.6 3.1L-10.9 -8.7Z" fill="none" stroke="#297EA6" stroke-width="2"></path></g><g transform="translate(630 232)"><path d="M0 -18L14.1 -11.2L17.5 4L7.8 16.2L-7.8 16.2L-17.5 4L-14.1 -11.2Z" fill="none" stroke="#297EA6" stroke-width="2"></path></g><g transform="translate(899 536)"><path d="M0 -10L7.8 -6.2L9.7 2.2L4.3 9L-4.3 9L-9.7 2.2L-7.8 -6.2Z" fill="none" stroke="#297EA6" stroke-width="2"></path></g><g transform="translate(568 381)"><path d="M0 -41L32.1 -25.6L40 9.1L17.8 36.9L-17.8 36.9L-40 9.1L-32.1 -25.6Z" fill="none" stroke="#297EA6" stroke-width="2"></path></g><g transform="translate(899 165)"><path d="M0 -20L15.6 -12.5L19.5 4.5L8.7 18L-8.7 18L-19.5 4.5L-15.6 -12.5Z" fill="none" stroke="#297EA6" stroke-width="2"></path></g><g transform="translate(233 302)"><path d="M0 -18L14.1 -11.2L17.5 4L7.8 16.2L-7.8 16.2L-17.5 4L-14.1 -11.2Z" fill="none" stroke="#297EA6" stroke-width="2"></path></g><g transform="translate(401 40)"><path d="M0 -30L23.5 -18.7L29.2 6.7L13 27L-13 27L-29.2 6.7L-23.5 -18.7Z" fill="none" stroke="#297EA6" stroke-width="2"></path></g><g transform="translate(781 258)"><path d="M0 -24L18.8 -15L23.4 5.3L10.4 21.6L-10.4 21.6L-23.4 5.3L-18.8 -15Z" fill="none" stroke="#297EA6" stroke-width="2"></path></g><g transform="translate(891 439)"><path d="M0 -41L32.1 -25.6L40 9.1L17.8 36.9L-17.8 36.9L-40 9.1L-32.1 -25.6Z" fill="none" stroke="#297EA6" stroke-width="2"></path></g><g transform="translate(44 119)"><path d="M0 -37L28.9 -23.1L36.1 8.2L16.1 33.3L-16.1 33.3L-36.1 8.2L-28.9 -23.1Z" fill="none" stroke="#297EA6" stroke-width="2"></path></g><g transform="translate(491 284)"><path d="M0 -14L10.9 -8.7L13.6 3.1L6.1 12.6L-6.1 12.6L-13.6 3.1L-10.9 -8.7Z" fill="none" stroke="#297EA6" stroke-width="2"></path></g><g transform="translate(226 7)"><path d="M0 -24L18.8 -15L23.4 5.3L10.4 21.6L-10.4 21.6L-23.4 5.3L-18.8 -15Z" fill="none" stroke="#297EA6" stroke-width="2"></path></g><g transform="translate(271 559)"><path d="M0 -15L11.7 -9.4L14.6 3.3L6.5 13.5L-6.5 13.5L-14.6 3.3L-11.7 -9.4Z" fill="none" stroke="#297EA6" stroke-width="2"></path></g><g transform="translate(597 7)"><path d="M0 -10L7.8 -6.2L9.7 2.2L4.3 9L-4.3 9L-9.7 2.2L-7.8 -6.2Z" fill="none" stroke="#297EA6" stroke-width="2"></path></g><g transform="translate(670 335)"><path d="M0 -16L12.5 -10L15.6 3.6L6.9 14.4L-6.9 14.4L-15.6 3.6L-12.5 -10Z" fill="none" stroke="#297EA6" stroke-width="2"></path></g><g transform="translate(147 301)"><path d="M0 -24L18.8 -15L23.4 5.3L10.4 21.6L-10.4 21.6L-23.4 5.3L-18.8 -15Z" fill="none" stroke="#297EA6" stroke-width="2"></path></g><g transform="translate(367 596)"><path d="M0 -31L24.2 -19.3L30.2 6.9L13.5 27.9L-13.5 27.9L-30.2 6.9L-24.2 -19.3Z" fill="none" stroke="#297EA6" stroke-width="2"></path></g><g transform="translate(390 129)"><path d="M0 -34L26.6 -21.2L33.1 7.6L14.8 30.6L-14.8 30.6L-33.1 7.6L-26.6 -21.2Z" fill="none" stroke="#297EA6" stroke-width="2"></path></g><g transform="translate(772 9)"><path d="M0 -31L24.2 -19.3L30.2 6.9L13.5 27.9L-13.5 27.9L-30.2 6.9L-24.2 -19.3Z" fill="none" stroke="#297EA6" stroke-width="2"></path></g><g transform="translate(321 388)"><path d="M0 -29L22.7 -18.1L28.3 6.5L12.6 26.1L-12.6 26.1L-28.3 6.5L-22.7 -18.1Z" fill="none" stroke="#297EA6" stroke-width="2"></path></g><g transform="translate(4 195)"><path d="M0 -32L25 -20L31.2 7.1L13.9 28.8L-13.9 28.8L-31.2 7.1L-25 -20Z" fill="none" stroke="#297EA6" stroke-width="2"></path></g><g transform="translate(893 259)"><path d="M0 -23L18 -14.3L22.4 5.1L10 20.7L-10 20.7L-22.4 5.1L-18 -14.3Z" fill="none" stroke="#297EA6" stroke-width="2"></path></g><g transform="translate(18 433)"><path d="M0 -19L14.9 -11.8L18.5 4.2L8.2 17.1L-8.2 17.1L-18.5 4.2L-14.9 -11.8Z" fill="none" stroke="#297EA6" stroke-width="2"></path></g><g transform="translate(571 91)"><path d="M0 -26L20.3 -16.2L25.3 5.8L11.3 23.4L-11.3 23.4L-25.3 5.8L-20.3 -16.2Z" fill="none" stroke="#297EA6" stroke-width="2"></path></g><g transform="translate(176 187)"><path d="M0 -41L32.1 -25.6L40 9.1L17.8 36.9L-17.8 36.9L-40 9.1L-32.1 -25.6Z" fill="none" stroke="#297EA6" stroke-width="2"></path></g><g transform="translate(714 425)"><path d="M0 -36L28.1 -22.4L35.1 8L15.6 32.4L-15.6 32.4L-35.1 8L-28.1 -22.4Z" fill="none" stroke="#297EA6" stroke-width="2"></path></g><g transform="translate(20 298)"><path d="M0 -22L17.2 -13.7L21.4 4.9L9.5 19.8L-9.5 19.8L-21.4 4.9L-17.2 -13.7Z" fill="none" stroke="#297EA6" stroke-width="2"></path></g><g transform="translate(684 5)"><path d="M0 -21L16.4 -13.1L20.5 4.7L9.1 18.9L-9.1 18.9L-20.5 4.7L-16.4 -13.1Z" fill="none" stroke="#297EA6" stroke-width="2"></path></g><g transform="translate(486 592)"><path d="M0 -11L8.6 -6.9L10.7 2.4L4.8 9.9L-4.8 9.9L-10.7 2.4L-8.6 -6.9Z" fill="none" stroke="#297EA6" stroke-width="2"></path></g><g transform="translate(816 598)"><path d="M0 -25L19.5 -15.6L24.4 5.6L10.8 22.5L-10.8 22.5L-24.4 5.6L-19.5 -15.6Z" fill="none" stroke="#297EA6" stroke-width="2"></path></g><g transform="translate(868 349)"><path d="M0 -41L32.1 -25.6L40 9.1L17.8 36.9L-17.8 36.9L-40 9.1L-32.1 -25.6Z" fill="none" stroke="#297EA6" stroke-width="2"></path></g></g></svg>